# xmcd
#
# Track frame offsets: 
#        150
#        16768
#        33291
#        43019
#        57297
#        70528
#        84162
#        94850
#        105685
#        122720
#
# Disc length: 1761 seconds
#
# Revision: 4
# Processed by: cddbd v1.5.2PL0 Copyright (c) Steve Scherf et al.
# Submitted via: ExactAudioCopy v1.3
#
DISCID=7106df0a
DTITLE=Johnny Cash - Johnny Cash - Man In Black
DYEAR=2012
DGENRE=Country
TTITLE0=Johnny Cash - The Preacher Said, "Jesus Said" (with Billy Grah
TTITLE0=am)
TTITLE1=Johnny Cash - Orphan Of The Road
TTITLE2=Johnny Cash - You've Got A New Light Shining In Your Eyes
TTITLE3=Johnny Cash - If Not For Love
TTITLE4=Johnny Cash - Man In Black
TTITLE5=Johnny Cash - Singin' In Viet Nam Talkin' Blues
TTITLE6=Johnny Cash - Ned Kelly
TTITLE7=Johnny Cash - Look For Me (with June Carter Cash)
TTITLE8=Johnny Cash - Dear Mrs.
TTITLE9=Johnny Cash - I Talk To Jesus Every Day (with June Carter Cash
TTITLE9=)
EXTD=
EXTT0=
EXTT1=
EXTT2=
EXTT3=
EXTT4=
EXTT5=
EXTT6=
EXTT7=
EXTT8=
EXTT9=
PLAYORDER=
